<?xml version="1.0" encoding="UTF-8"?>
<svg version="1.1" xmlns="http://www.w3.org/2000/svg" width="888" height="873">
<path d="M0 0 C2.27970308 0.00888682 4.55940688 0.01759302 6.83911133 0.02612305 C108.14501068 0.50567921 208.88372563 30.50888368 292.26953125 100.671875 C295.08767333 103.10143792 297.96662367 105.42978903 300.875 107.75 C305.51384333 111.51906021 309.69997892 115.59553786 313.87109375 119.87109375 C315.82803821 121.82803821 317.81100874 123.60969621 319.9375 125.375 C326.57353965 131.05534225 332.30254638 137.75138226 338.1875 144.1875 C339.04085937 145.11433594 339.89421875 146.04117188 340.7734375 146.99609375 C346.13888054 152.87925498 351.25815965 158.93508255 356.1875 165.1875 C356.76419434 165.9187207 357.34088867 166.64994141 357.93505859 167.40332031 C367.74006913 179.90327527 376.79532475 192.699759 385.1875 206.1875 C385.58984863 206.8278418 385.99219727 207.46818359 386.40673828 208.12792969 C422.78352733 266.21116275 445.69537779 333.78109293 451.1875 402.1875 C451.31668823 403.67975098 451.31668823 403.67975098 451.44848633 405.20214844 C452.36399518 416.98392392 452.38732586 428.75113282 452.375 440.5625 C452.37409363 442.16454285 452.37409363 442.16454285 452.37316895 443.7989502 C452.34926421 459.35393905 452.11664429 474.73337671 450.1875 490.1875 C449.99414062 491.79818359 449.99414062 491.79818359 449.796875 493.44140625 C444.50133346 536.54123045 433.29387948 578.27261455 416.1875 618.1875 C148.5575 618.1875 -119.0725 618.1875 -394.8125 618.1875 C-406.52494285 588.90639288 -406.52494285 588.90639288 -410 577.875 C-410.30375549 576.91793152 -410.30375549 576.91793152 -410.61364746 575.94152832 C-420.89061844 543.4696376 -428.95828009 508.45453387 -430.4375 474.25 C-430.47399658 473.41903809 -430.51049316 472.58807617 -430.5480957 471.73193359 C-434.35432008 368.42012899 -410.26079481 268.02228269 -326.8125 156.0625 C-326.15592407 155.29244629 -326.15592407 155.29244629 -325.48608398 154.50683594 C-317.09112173 144.77922049 -308.27016884 135.47720428 -299.16821289 126.4128418 C-297.61160611 124.86165273 -296.06049829 123.30510608 -294.50976562 121.74804688 C-289.11673214 116.35110656 -283.64034455 111.11761895 -277.8125 106.1875 C-276.79096582 105.29898221 -275.77009167 104.40970479 -274.75 103.51953125 C-213.95182601 51.37216127 -139.03137562 18.16210726 -60.3125 4.9375 C-59.5720343 4.8124408 -58.8315686 4.68738159 -58.06866455 4.55853271 C-52.99159198 3.70828364 -47.90770823 2.92113809 -42.8125 2.1875 C-42.11476471 2.08545258 -41.41702942 1.98340515 -40.69815063 1.87826538 C-27.14099993 -0.04458321 -13.67197328 -0.08799511 0 0 Z " fill="#dc2626" transform="translate(431.8125,0.8125)"/>
<path d="M0 0 C0.94082932 0.00359528 1.88165863 0.00719055 2.85099792 0.01089478 C4.3288829 0.01067574 4.3288829 0.01067574 5.83662415 0.01045227 C9.11023623 0.01115185 12.3837922 0.01894632 15.65739441 0.02676392 C17.92040984 0.02862794 20.18342567 0.03005191 22.44644165 0.03105164 C28.41577764 0.03487807 34.38508948 0.04470942 40.35441589 0.05575562 C47.50962067 0.06776099 54.66483351 0.07237138 61.82004547 0.07820892 C72.70204319 0.08792111 83.58398786 0.1070768 94.46598816 0.12442017 C94.46598816 29.82442017 94.46598816 59.52442017 94.46598816 90.12442017 C69.87928804 90.16452898 69.87928804 90.16452898 59.42106628 90.17324829 C52.27725993 90.17923244 45.13346635 90.18632139 37.9896698 90.19985962 C32.23199129 90.21070307 26.47432649 90.21670012 20.71663857 90.21929741 C18.51694841 90.22114902 16.31725903 90.22476459 14.11757469 90.23015022 C11.04318479 90.23737995 7.96885195 90.23841028 4.89445496 90.23794556 C3.97951767 90.24154083 3.06458038 90.24513611 2.12191772 90.24884033 C1.28479248 90.24746567 0.44766724 90.246091 -0.41482544 90.24467468 C-1.1421201 90.24559648 -1.86941477 90.24651827 -2.61874866 90.24746799 C-4.53401184 90.12442017 -4.53401184 90.12442017 -7.53401184 89.12442017 C-7.55713425 77.66792001 -7.57492641 66.21142535 -7.58582401 54.75490665 C-7.59105306 49.43576804 -7.59815111 44.11664533 -7.60945129 38.79751587 C-7.62027939 33.66878032 -7.62628851 28.54006011 -7.62888908 23.41131401 C-7.63074347 21.45000403 -7.63436435 19.48869492 -7.6397419 17.52739143 C-7.6469513 14.79026569 -7.64800283 12.05320419 -7.64753723 9.31607056 C-7.65113251 8.49680084 -7.65472778 7.67753113 -7.65843201 6.83343506 C-7.64526777 -0.27048018 -7.02769162 0.01134947 0 0 Z " fill="#dc2626" transform="translate(272.5340118408203,757.8755798339844)"/>
<path d="M0 0 C33.33 0 66.66 0 101 0 C101 29.7 101 59.4 101 90 C67.67 90 34.34 90 0 90 C0 60.3 0 30.6 0 0 Z " fill="#dc2626" transform="translate(392,758)"/>
<path d="M0 0 C33.33 0 66.66 0 101 0 C101.020625 14.664375 101.04125 29.32875 101.0625 44.4375 C101.071604 49.07482178 101.08070801 53.71214355 101.09008789 58.48999023 C101.09460449 64.1348877 101.09460449 64.1348877 101.09544373 66.77406311 C101.09698344 68.62485494 101.10050893 70.47564574 101.10557556 72.32643127 C101.11285172 75.12315627 101.11390746 77.91981975 101.11352539 80.71655273 C101.1171235 81.54673888 101.12072161 82.37692503 101.12442875 83.23226833 C101.11402634 88.88597366 101.11402634 88.88597366 100 90 C96.8949275 90.09533653 93.81213542 90.12551126 90.70678711 90.11352539 C89.73128403 90.11367142 88.75578094 90.11381744 87.75071716 90.1139679 C84.50957047 90.11326833 81.26848046 90.10547391 78.02734375 90.09765625 C75.78674857 90.09579222 73.54615298 90.09436825 71.30555725 90.09336853 C65.3954049 90.08954213 59.48527695 90.0797108 53.57513428 90.06866455 C46.49084731 90.0566591 39.40655221 90.05204877 32.322258 90.04621124 C21.548155 90.03649911 10.7741056 90.0173434 0 90 C0 60.3 0 30.6 0 0 Z " fill="#dc2626" transform="translate(518,758)"/>
<path d="M0 0 C33.66 0 67.32 0 102 0 C102 29.37 102 58.74 102 89 C68.34 89 34.68 89 0 89 C0 59.63 0 30.26 0 0 Z " fill="#dc2626" transform="translate(265,644)"/>
<path d="M0 0 C33.33 0 66.66 0 101 0 C101 29.37 101 58.74 101 89 C67.67 89 34.34 89 0 89 C0 59.63 0 30.26 0 0 Z " fill="#dc2626" transform="translate(644,644)"/>
<path d="M0 0 C33.33 0 66.66 0 101 0 C101 29.37 101 58.74 101 89 C67.67 89 34.34 89 0 89 C0 59.63 0 30.26 0 0 Z " fill="#dc2626" transform="translate(518,644)"/>
<path d="M0 0 C33.33 0 66.66 0 101 0 C101 29.37 101 58.74 101 89 C67.67 89 34.34 89 0 89 C0 59.63 0 30.26 0 0 Z " fill="#dc2626" transform="translate(392,644)"/>
<path d="M0 0 C33.33 0 66.66 0 101 0 C101 29.37 101 58.74 101 89 C67.67 89 34.34 89 0 89 C0 59.63 0 30.26 0 0 Z " fill="#dc2626" transform="translate(139,644)"/>
</svg> 